<?xml version="1.0" encoding="utf-8"?>
<!-- Generator: Adobe Illustrator 16.0.4, SVG Export Plug-In . SVG Version: 6.00 Build 0)  -->
<!DOCTYPE svg PUBLIC "-//W3C//DTD SVG 1.1//EN" "http://www.w3.org/Graphics/SVG/1.1/DTD/svg11.dtd">
<svg version="1.1" id="Layer_1" xmlns="http://www.w3.org/2000/svg" xmlns:xlink="http://www.w3.org/1999/xlink" x="0px" y="0px"
	 width="512px" height="512px" fill="#b0b0b0" viewBox="0 0 512 512" enable-background="new 0 0 512 512" xml:space="preserve">
<path d="M344.714,374.286H463L344.714,492.571V374.286z M315.143,359.5v133.071H78.571C62.241,492.571,49,479.345,49,463V49
	c0-16.345,13.241-29.571,29.571-29.571h354.857C449.773,19.429,463,32.655,463,49v295.714H329.929
	C321.756,344.714,315.143,351.327,315.143,359.5z M108.143,122.929c0,8.172,6.612,14.786,14.786,14.786h266.143
	c8.173,0,14.786-6.613,14.786-14.786c0-8.173-6.613-14.786-14.786-14.786H122.929C114.755,108.143,108.143,114.756,108.143,122.929z
	 M108.143,211.643c0,8.172,6.612,14.786,14.786,14.786h266.143c8.173,0,14.786-6.613,14.786-14.786
	c0-8.173-6.613-14.786-14.786-14.786H122.929C114.755,196.857,108.143,203.47,108.143,211.643z M389.071,315.143
	c8.173,0,14.786-6.613,14.786-14.785c0-8.173-6.613-14.786-14.786-14.786H122.929c-8.173,0-14.786,6.613-14.786,14.786
	c0,8.172,6.612,14.785,14.786,14.785H389.071z"/>
</svg>
